<?xml version="1.0" encoding="UTF-8" standalone="no"?>
<svg
   xmlns:dc="http://purl.org/dc/elements/1.1/"
   xmlns:cc="http://creativecommons.org/ns#"
   xmlns:rdf="http://www.w3.org/1999/02/22-rdf-syntax-ns#"
   xmlns:svg="http://www.w3.org/2000/svg"
   xmlns="http://www.w3.org/2000/svg"
   xmlns:sodipodi="http://sodipodi.sourceforge.net/DTD/sodipodi-0.dtd"
   xmlns:inkscape="http://www.inkscape.org/namespaces/inkscape"
   version="1.0"
   x="0px"
   y="0px"
   width="598.48541"
   height="599.83948"
   viewBox="0 0 598.486 671.089"
   enable-background="new 0 0 598.486 671.089"
   id="svg250"
   sodipodi:docname="Oauth_deno.svg"
   inkscape:version="1.0.2 (e86c8708, 2021-01-15)">
  <metadata
     id="metadata256">
    <rdf:RDF>
      <cc:Work
         rdf:about="">
        <dc:format>image/svg+xml</dc:format>
        <dc:type
           rdf:resource="http://purl.org/dc/dcmitype/StillImage" />
        <dc:title></dc:title>
      </cc:Work>
    </rdf:RDF>
  </metadata>
  <defs
     id="defs254" />
  <sodipodi:namedview
     pagecolor="#ffffff"
     bordercolor="#666666"
     borderopacity="1"
     objecttolerance="10"
     gridtolerance="10"
     guidetolerance="10"
     inkscape:pageopacity="0"
     inkscape:pageshadow="2"
     inkscape:window-width="2744"
     inkscape:window-height="1419"
     id="namedview252"
     showgrid="false"
     inkscape:zoom="1.6048167"
     inkscape:cx="195.30226"
     inkscape:cy="309.20763"
     inkscape:window-x="192"
     inkscape:window-y="343"
     inkscape:window-maximized="0"
     inkscape:current-layer="layer2" />
  <g
     inkscape:groupmode="layer"
     id="layer1"
     inkscape:label="Layer 1"
     style="display:inline">
    <g
       transform="translate(-1.0529414e-7,35.625)"
       id="g248"
       style="display:inline">
      <path
         fill="#ffffff"
         d="M 277.7249,0.87048682 C 410.2899,-8.3215132 498.1879,56.550487 548.4459,135.58949 c 25.2,39.63 49.925,99.82 50.039,161.663 0.122,67.194 -21.646,125.383 -50.039,168.078 -29.182,43.883 -66.926,80.128 -114.19,103.927 -79.006,39.783 -189.42,40.871 -261.741,2.566 -80.542003,-42.658 -142.468003,-103.545 -165.5120033,-209.136 -9.222,-42.256 -10.282,-96.855 2.566,-143.7 3.0150003,-10.989 8.4940003,-22.554 12.8310003,-33.359 20.842,-51.924 56.317,-97.076003 100.077003,-128.305003 17.584,-12.548 38.916,-25.028 57.737,-33.359 23.418,-10.365 62.846,-20.6910002 97.511,-23.09400018 z"
         id="path152" />
      <path
         fill="#000000"
         d="m 529.1839,304.72449 c 0,125.288 -101.566,226.847 -226.852,226.847 -125.286,0 -226.850003,-101.559 -226.850003,-226.847 0,-125.285 101.564003,-226.852003 226.850003,-226.852003 125.285,0 226.852,101.567003 226.852,226.852003 z"
         id="path154" />
      <path
         fill="#000000"
         d="M 277.7249,0.87048682 C 410.2899,-8.3215132 498.1879,56.550487 548.4459,135.58949 c 25.2,39.63 49.925,99.82 50.039,161.663 0.122,67.194 -21.646,125.383 -50.039,168.078 -29.182,43.883 -66.926,80.128 -114.19,103.927 -79.006,39.783 -189.42,40.871 -261.741,2.566 -80.542003,-42.658 -142.468003,-103.545 -165.5120033,-209.136 -9.222,-42.256 -10.282,-96.855 2.566,-143.7 3.0150003,-10.989 8.4940003,-22.554 12.8310003,-33.359 20.842,-51.924 56.317,-97.076003 100.077003,-128.305003 17.584,-12.548 38.916,-25.028 57.737,-33.359 23.418,-10.365 62.846,-20.6910002 97.511,-23.09400018 z M 232.8179,22.682487 c -49.239,12.766 -85.342,35.637 -116.756,60.303 -45.299003,35.568003 -74.177003,85.203003 -91.096003,144.983003 -18.8230003,66.508 -6.732,146.99 19.246,197.588 26.939,52.472 63.110003,93.203 114.190003,121.889 49.695,27.908 119.591,45.828 192.457,32.076 64.74,-12.218 113.909,-40.421 153.965,-82.115 53.592,-55.785 96.665,-158.534 68.002,-266.872 -7.662,-28.955 -17.679,-59.133 -33.36,-84.681 -8.472,-13.802 -20.904,-27.38 -33.359,-41.057 -47.006,-51.621003 -122.979,-96.1040032 -220.684,-89.813003 -18.594,1.197 -34.935,3.117 -52.605,7.699 z"
         id="path156" />
      <g
         style="fill:none;stroke:#ffffff;stroke-width:2"
         id="hashpattern">
        <g
           id="g186">
          <line
             y2="314.65799"
             x2="578.18799"
             y1="576.78998"
             x1="316.04999"
             id="line158" />
          <line
             y2="292.754"
             x2="556.41498"
             y1="556.03003"
             x1="293.134"
             id="line160" />
          <line
             y2="270.85101"
             x2="534.64301"
             y1="535.27301"
             x1="270.21701"
             id="line162" />
          <line
             y2="248.948"
             x2="512.87"
             y1="514.513"
             x1="247.3"
             id="line164" />
          <line
             y2="227.04401"
             x2="491.09799"
             y1="493.754"
             x1="224.384"
             id="line166" />
          <line
             y2="205.14101"
             x2="469.32401"
             y1="473"
             x1="201.467"
             id="line168" />
          <line
             y2="183.23801"
             x2="447.552"
             y1="452.23599"
             x1="178.55"
             id="line170" />
          <line
             y2="161.334"
             x2="425.77802"
             y1="431.47699"
             x1="155.633"
             id="line172" />
          <line
             y2="139.431"
             x2="404"
             y1="410.71799"
             x1="132.716"
             id="line174" />
          <line
             y2="117.528"
             x2="382.233"
             y1="389.95801"
             x1="109.8"
             id="line176" />
          <line
             y2="95.625"
             x2="360.45999"
             y1="369.20001"
             x1="86.883003"
             id="line178" />
          <line
             y2="73.721001"
             x2="338.68799"
             y1="348.44101"
             x1="63.966"
             id="line180" />
          <line
             y2="51.818001"
             x2="316.91501"
             y1="327.681"
             x1="41.049"
             id="line182" />
          <line
             y2="29.915001"
             x2="295.142"
             y1="306.922"
             x1="18.132"
             id="line184" />
        </g>
        <g
           id="g216">
          <line
             y2="576.96002"
             x2="285.41901"
             y1="309.57199"
             x1="18.042999"
             id="line188" />
          <line
             y2="555.48798"
             x2="307.62201"
             y1="287.57901"
             x1="39.726002"
             id="line190" />
          <line
             y2="534.01398"
             x2="329.82501"
             y1="265.586"
             x1="61.409"
             id="line192" />
          <line
             y2="512.54199"
             x2="352.02899"
             y1="243.593"
             x1="83.092003"
             id="line194" />
          <line
             y2="491.06799"
             x2="374.23099"
             y1="221.60001"
             x1="104.774"
             id="line196" />
          <line
             y2="469.595"
             x2="396.436"
             y1="199.60699"
             x1="126.457"
             id="line198" />
          <line
             y2="448.12201"
             x2="418.63901"
             y1="177.614"
             x1="148.14"
             id="line200" />
          <line
             y2="426.64801"
             x2="440.84201"
             y1="155.621"
             x1="169.82201"
             id="line202" />
          <line
             y2="405.17499"
             x2="463.04599"
             y1="133.62801"
             x1="191.505"
             id="line204" />
          <line
             y2="383.70001"
             x2="485.24799"
             y1="111.635"
             x1="213.188"
             id="line206" />
          <line
             y2="362.229"
             x2="507.452"
             y1="89.641998"
             x1="234.871"
             id="line208" />
          <line
             y2="340.755"
             x2="529.65503"
             y1="67.649002"
             x1="256.55301"
             id="line210" />
          <line
             y2="319.28299"
             x2="551.85797"
             y1="45.657001"
             x1="278.23599"
             id="line212" />
          <line
             y2="297.80899"
             x2="574.06201"
             y1="23.664"
             x1="299.92001"
             id="line214" />
        </g>
      </g>
      <path
         d="m 490.7099,106.07949 c -23.593,-23.593003 -52.599,-44.853003 -87.247,-57.737003 -35.914,-13.355 -76.54,-24.612 -124.455,-20.529 -76.326,6.506 -129.916,40.751 -170.645,80.832003 -28.528003,28.073 -49.987003,62.474 -64.152003,102.643 -20.798,58.981 -19.536,128.598 3.849,188.607 19.947,51.187 52.595003,92.473 98.794003,124.455 43.431,30.067 105.765,53.386 175.776,47.473 85.272,-7.202 147.664,-50.95 188.607,-101.36 10.476,-12.896 20.892,-27.473 26.943,-44.906 5.929,-12.561 8.831,-21.1 11.548,-25.661 11.372,-25.482 17.397,-52.368 19.245,-82.114 5.685,-91.492 -29.517,-162.956 -78.263,-211.703 z m -25.131,278.748 c -0.163,0.348 -0.309,0.672 -0.479,1.031 -4.23,12.105 -11.517,22.227 -18.841,31.183 -28.634,35.004 -72.263,65.382 -131.895,70.384 -48.961,4.104 -92.552,-12.087 -122.923,-32.965 -26.392,-18.143 -46.454,-40.601 -60.522,-67.591 -0.858,-1.624 -9.028,-20.447 -9.052,-21.275 -11.145,-34.569 -12.112,-90.155 -0.673,-123.512 7.634,-22.263 20.357,-46.351 37.208,-65.435 23.266,-26.351 46.549,-43.236 83.398,-55.171 16.825,-5.45 31.887,-10.997 52.604,-11.547 50.52,-1.345 101.965,21.338 129.587,46.189 25.384,22.837 54.314,67.322 61.587,109.058 7.485,42.957 -0.503,84.898 -19.999,119.651 z"
         id="path219" />
      <path
         stroke="#000000"
         stroke-width="6"
         fill="#ffffff"
         d="m 377.768,426.033 c -12.44,0 -23.357,-7.878 -27.167,-19.604 L 336.745,364.211 H 267.43 l -12.874,41.833 C 250.67,417.998 239.67,426 227.166,426 c -3.002,0 -5.984,-0.475 -8.863,-1.409 -14.946,-4.487 -23.431,-20.574 -18.852,-35.84 l 58.506,-185.323 c 3.799,-11.789 14.983,-20.012 27.2,-20.012 h 31.11 c 12.286,0 23.469,8.083 27.194,19.657 l 61.529,185.254 c 4.92,15.146 -3.227,31.405 -18.151,36.263 -2.951,0.958 -6.002,1.443 -9.071,1.443 z"
         id="path221" />
      <g
         id="OAUTH"
         fill="#ffffff">
        <g
           id="g233">
          <path
             d="m 148.001,124.354 -0.073,-0.099 c -7.296,-9.999 -5.155,-23.987 5.59,-31.829 10.745,-7.841 24.548,-5.64 31.844,4.358 l 0.073,0.099 c 7.296,9.999 5.155,23.988 -5.59,31.829 -10.745,7.841 -24.548,5.641 -31.844,-4.358 z m 27.657,-20.183 -0.073,-0.099 c -3.666,-5.024 -10.492,-6.752 -15.814,-2.868 -5.273,3.848 -5.683,10.703 -2.017,15.728 l 0.073,0.099 c 3.667,5.024 10.492,6.752 15.765,2.904 5.323,-3.884 5.733,-10.739 2.066,-15.764 z"
             id="path223" />
          <path
             d="m 218.344,58.817 10.965,-3.518 30.739,35.734 -12.197,3.913 -5.342,-6.37 -15.833,5.08 -0.58,8.271 -11.962,3.838 z m 18.04,21.958 -8.318,-10.202 -0.889,13.156 z"
             id="path225" />
          <path
             d="m 279.795,69.567 0.096,-24.203 12.132,0.048 -0.095,23.957 c -0.025,6.22 3.104,9.188 7.908,9.208 4.804,0.019 7.956,-2.801 7.979,-8.836 l 0.097,-24.264 12.132,0.048 -0.095,23.895 c -0.055,13.918 -8.023,19.984 -20.279,19.935 -12.255,-0.05 -19.928,-6.301 -19.875,-19.788 z"
             id="path227" />
          <path
             d="m 363.859,65.338 -12.368,-3.775 3.056,-10.013 36.163,11.037 -3.056,10.013 -12.368,-3.774 -9.527,31.216 -11.426,-3.487 z"
             id="path229" />
          <path
             d="m 423.012,76.559 9.946,6.619 -8.938,13.432 12.766,8.496 8.939,-13.433 9.946,6.619 -23.883,35.889 -9.947,-6.619 9.076,-13.638 -12.767,-8.496 -9.075,13.638 -9.946,-6.619 z"
             id="path231" />
        </g>
        <g
           id="g245">
          <path
             d="m 458.146,468.883 0.076,0.097 c 7.674,9.713 6.068,23.775 -4.37,32.021 -10.438,8.246 -24.316,6.574 -31.99,-3.139 l -0.076,-0.097 c -7.674,-9.714 -6.067,-23.775 4.37,-32.021 10.438,-8.245 24.316,-6.574 31.99,3.139 z m -26.869,21.227 0.076,0.097 c 3.856,4.881 10.743,6.347 15.914,2.262 5.122,-4.047 5.271,-10.913 1.414,-15.794 l -0.076,-0.097 c -3.855,-4.881 -10.743,-6.347 -15.865,-2.3 -5.171,4.085 -5.319,10.951 -1.463,15.832 z"
             id="path235" />
          <path
             d="m 390.707,537.182 -10.8,3.997 -32.282,-34.346 12.013,-4.447 5.618,6.13 15.594,-5.772 0.215,-8.288 11.782,-4.361 z m -18.989,-21.142 8.759,9.825 0.309,-13.182 z"
             id="path237" />
          <path
             d="m 328.888,528.985 1.067,24.179 -12.12,0.535 -1.057,-23.933 c -0.274,-6.214 -3.542,-9.028 -8.341,-8.816 -4.799,0.212 -7.812,3.181 -7.546,9.21 l 1.07,24.24 -12.12,0.535 -1.054,-23.871 c -0.614,-13.904 7.054,-20.346 19.297,-20.886 12.244,-0.541 20.209,5.333 20.804,18.807 z"
             id="path239" />
          <path
             d="m 244.671,536.891 12.487,3.371 -2.729,10.108 -36.511,-9.855 2.729,-10.109 12.487,3.371 8.507,-31.516 11.536,3.114 z"
             id="path241" />
          <path
             d="m 185.65,528.108 -10.249,-6.142 8.295,-13.841 -13.153,-7.884 -8.295,13.841 -10.248,-6.142 22.164,-36.979 10.248,6.143 -8.422,14.052 13.154,7.884 8.422,-14.052 10.248,6.143 z"
             id="path243" />
        </g>
      </g>
    </g>
    <ellipse
       style="display:inline;fill:#ffffff;fill-rule:evenodd;stroke-width:1.25409"
       id="path340"
       cx="298.4278"
       cy="335.98373"
       rx="190.7261"
       ry="195.15227" />
  </g>
  <g
     inkscape:groupmode="layer"
     id="layer2"
     inkscape:label="deno">
    <g
       transform="matrix(0.04871958,0,0,-0.04871958,52.290604,586.36067)"
       fill="#000000"
       stroke="none"
       id="g300"
       style="display:inline">
      <path
         d="m 4720,9174 c -19,-2 -80,-9 -135,-14 -782,-82 -1552,-413 -2180,-939 -116,-96 -380,-360 -476,-476 -520,-621 -824,-1318 -936,-2143 -25,-183 -25,-801 0,-984 112,-825 416,-1522 936,-2143 96,-116 360,-380 476,-476 621,-520 1318,-824 2143,-936 183,-25 801,-25 984,0 825,112 1522,416 2143,936 116,96 380,360 476,476 520,621 824,1318 936,2143 25,183 25,801 0,984 -112,825 -416,1522 -936,2143 -96,116 -360,380 -476,476 -619,518 -1323,826 -2137,935 -88,12 -216,17 -453,19 -181,2 -346,1 -365,-1 z m 50,-432 c 0,-117 8,-371 19,-612 6,-118 13,-287 16,-375 11,-312 44,-1131 49,-1204 l 5,-73 -45,5 c -25,2 -48,8 -52,11 -3,4 -10,73 -14,154 -18,356 -77,1737 -83,1939 l -6,222 28,4 c 15,2 40,5 56,6 l 27,1 z m 957,24 c 1,-1 4,-303 7,-671 4,-369 9,-700 12,-736 3,-37 2,-69 -3,-71 -4,-3 -29,-3 -54,0 l -46,4 -7,291 c -4,161 -9,339 -11,397 -8,177 -15,778 -9,793 4,11 15,12 57,5 29,-6 53,-11 54,-12 z M 3414,8431 c 6,-9 53,-560 111,-1281 19,-245 38,-469 41,-497 5,-51 4,-53 -28,-73 -18,-11 -36,-20 -40,-20 -3,0 -9,26 -12,58 -14,130 -68,758 -106,1212 -22,267 -42,506 -45,532 -5,44 -4,48 22,62 32,17 50,20 57,7 z m 2753,-201 c 28,-10 31,-15 37,-72 10,-100 7,-578 -4,-578 -29,0 -89,34 -94,53 -3,12 -6,154 -6,315 0,325 -4,306 67,282 z m -1847,-47 c 0,-27 7,-176 15,-333 8,-157 17,-356 21,-442 7,-174 9,-168 -58,-172 -33,-1 -33,-1 -35,49 -2,28 -7,115 -13,195 -5,80 -17,253 -25,385 -8,132 -18,263 -21,291 -6,50 -5,52 22,62 16,6 44,11 62,11 32,1 32,1 32,-46 z m 2774,-137 34,-14 7,-134 c 3,-73 5,-231 3,-350 l -3,-218 -42,21 -42,20 -3,332 c -2,183 -1,338 1,345 4,15 4,15 45,-2 z M 5268,7915 c 6,-6 20,-491 21,-737 l 1,-148 -47,7 c -27,3 -49,6 -50,7 -3,2 -33,743 -33,815 v 74 l 51,-6 c 29,-4 54,-9 57,-12 z m 2303,-71 c 12,-14 14,-233 17,-1441 3,-1387 3,-1423 -15,-1423 -11,0 -26,6 -35,13 -15,11 -17,132 -22,1317 -4,718 -9,1370 -12,1449 l -6,144 29,-21 c 17,-12 36,-29 44,-38 z m -897,-205 c 5,-4 10,-61 11,-126 5,-221 6,-1576 1,-1580 -2,-2 -20,3 -40,11 l -36,15 v 851 850 l 28,-6 c 15,-4 31,-10 36,-15 z m -2760,-56 c 3,-27 8,-88 11,-138 3,-49 10,-161 16,-248 12,-176 10,-187 -47,-187 -30,0 -34,3 -38,33 -10,59 -45,551 -40,559 5,7 57,25 81,27 6,1 14,-20 17,-46 z M 2260,7328 c 11,-106 33,-328 49,-493 17,-165 31,-305 31,-311 0,-12 -77,-50 -85,-42 -5,5 -105,890 -105,930 0,24 77,125 87,114 3,-2 13,-91 23,-198 z m 3921,-105 29,-17 1,-216 c 1,-118 3,-250 3,-293 2,-90 -9,-105 -63,-86 l -31,11 v 86 c 0,48 -3,187 -7,310 l -6,222 h 23 c 12,0 35,-8 51,-17 z M 2699,6835 c 18,-192 47,-516 66,-720 l 34,-370 -39,-39 -38,-39 -7,79 c -4,44 -24,248 -45,454 -21,206 -51,505 -66,664 l -28,288 39,36 c 35,33 39,34 46,16 4,-10 21,-176 38,-369 z m -749,-121 c 22,-197 80,-721 130,-1164 50,-443 97,-870 106,-950 8,-80 22,-201 30,-270 14,-117 14,-125 -2,-137 -24,-18 -34,-16 -34,5 0,9 -9,85 -20,167 -18,137 -48,369 -115,890 -14,105 -41,314 -60,465 -20,151 -49,376 -65,500 -16,124 -43,336 -60,473 -18,136 -29,257 -26,270 7,27 66,121 72,115 2,-3 22,-166 44,-364 z m -306,-431 c 15,-120 43,-339 62,-488 19,-148 43,-333 54,-410 l 19,-140 -21,-18 c -12,-10 -24,-14 -28,-10 -4,4 -12,44 -18,88 -6,44 -43,301 -83,570 l -71,490 23,68 c 12,37 25,67 28,67 4,0 19,-98 35,-217 z m 5490,131 c 14,-14 16,-76 16,-535 v -519 h -28 c -61,0 -60,-15 -64,553 l -3,517 h 32 c 17,0 39,-7 47,-16 z M 4945,6235 c 226,-34 423,-97 618,-197 126,-65 186,-110 326,-244 208,-199 336,-373 456,-619 175,-358 243,-675 329,-1525 39,-381 90,-1072 101,-1355 3,-82 10,-217 16,-300 11,-176 24,-152 -131,-227 -215,-104 -422,-176 -695,-243 -334,-82 -550,-108 -880,-109 l -240,-1 2,115 c 0,63 6,210 12,325 30,557 24,1260 -15,1650 -22,224 -65,496 -89,556 -5,13 18,24 117,58 181,63 338,142 362,181 43,74 -34,180 -132,180 -17,0 -68,-18 -115,-39 -224,-103 -673,-224 -932,-251 -179,-19 -457,-8 -650,27 -105,19 -293,90 -450,171 -181,94 -292,219 -325,367 -18,80 -13,240 10,330 25,99 95,243 159,327 285,375 873,700 1476,814 192,36 464,40 670,9 z m 3085,-31 c 36,-15 40,-19 40,-53 2,-273 -4,-897 -9,-923 -1,-9 -53,-10 -75,-2 -14,5 -16,59 -16,500 0,316 4,494 10,494 5,0 28,-7 50,-16 z m 437,-549 36,-15 -7,-828 c -8,-1055 -9,-1086 -47,-1177 -62,-149 -59,-179 -53,475 2,327 7,658 9,735 2,77 4,294 5,483 0,228 3,342 10,342 6,0 27,-7 47,-15 z M 2453,5406 c 6,-81 4,-89 -25,-153 l -32,-68 -12,100 c -19,160 -19,167 19,191 17,12 35,20 38,18 3,-2 9,-42 12,-88 z m -618,-603 c 9,-82 79,-626 115,-893 54,-413 58,-472 34,-447 -3,3 -26,142 -50,309 -156,1078 -155,1071 -142,1079 27,18 36,8 43,-48 z m 720,-458 c 6,-25 35,-296 35,-329 0,-28 -36,-54 -52,-38 -5,5 -18,90 -28,188 -11,99 -22,202 -25,229 l -6,50 35,-40 c 20,-22 38,-49 41,-60 z m 807,-377 c 11,-10 18,-50 27,-158 15,-195 17,-180 -24,-180 -42,0 -41,-3 -55,173 -14,179 -14,177 13,177 13,0 30,-6 39,-12 z m 792,-15 c 2,-10 7,-70 11,-133 3,-63 12,-205 20,-315 28,-404 29,-455 12,-455 -19,0 -21,15 -43,300 -8,118 -23,304 -33,413 -9,109 -15,200 -12,202 11,12 40,3 45,-12 z M 2274,3761 c 6,-9 44,-329 91,-766 14,-132 28,-259 31,-283 l 5,-43 -25,16 c -19,13 -26,26 -26,49 0,63 -43,478 -76,732 -19,144 -34,271 -34,283 0,21 24,29 34,12 z m 5771,-418 -7,-418 -25,-37 c -57,-84 -54,-100 -51,368 l 2,429 37,38 c 20,20 40,37 44,37 3,0 3,-188 0,-417 z m -925,-663 c 5,-581 4,-626 -12,-644 -10,-11 -19,-18 -22,-15 -7,8 -17,1275 -9,1282 4,4 14,6 23,5 13,-3 16,-74 20,-628 z m -3266,398 c 7,-62 32,-359 42,-499 6,-94 6,-97 -16,-104 -12,-4 -26,-3 -30,2 -7,7 -29,229 -56,571 l -7,82 h 31 c 29,0 31,-2 36,-52 z m -786,-350 c 7,-7 12,-32 12,-57 0,-26 12,-161 25,-301 38,-383 41,-435 24,-425 -26,15 -49,38 -44,44 2,4 -2,54 -10,111 -7,58 -16,152 -20,210 -4,58 -13,164 -21,235 -19,175 -18,195 4,195 10,0 23,-5 30,-12 z m 473,-673 c 3,-22 9,-104 13,-182 7,-150 4,-161 -37,-130 -12,9 -20,47 -32,161 -21,206 -22,198 17,194 29,-3 33,-7 39,-43 z"
         id="path294" />
      <path
         d="m 3184,5756 c -104,-45 -112,-186 -14,-236 71,-36 143,-19 180,43 70,114 -44,246 -166,193 z"
         id="path296" />
      <path
         d="m 3862,5660 c -96,-59 -96,-201 0,-260 95,-57 218,18 218,132 0,110 -126,184 -218,128 z"
         id="path298" />
    </g>
  </g>
</svg>
